<svg xmlns="http://www.w3.org/2000/svg" viewBox="0 0 252.06 205.24"><defs><style>.cls-1{fill:#ffab00;}.cls-2{fill:#00acc1;}</style></defs><title>Ascendere</title><g id="Layer_2" data-name="Layer 2"><g id="Layer_1-2" data-name="Layer 1"><path class="cls-1" d="M119.06,53.38a5.75,5.75,0,0,1,1.95-.19c3.58,0,7.15,0,10.73,0a2.72,2.72,0,0,1,3,2.52c0,10.13,0,20.27,0,30.4a9.9,9.9,0,0,1-1,4c-1.49,3.62-3.32,7.08-5.13,10.55a11.32,11.32,0,0,1-2.17,3.23c-1.25.2-1.75-1.21-2.31-2.05-2.51-4.84-5.37-9.6-6.82-14.89-.1-10.27,0-20.55,0-30.83A2.7,2.7,0,0,1,119.06,53.38ZM119.37,86c.2,2.78,1.8,5.17,2.81,7.7L123,94a32.12,32.12,0,0,1,5.86,0l.89-.27a38.1,38.1,0,0,0,3-7.72C128.3,85.95,123.84,86,119.37,86Z"/><path class="cls-1" d="M113,101.69a3.77,3.77,0,1,1,6.35,3.64,4.79,4.79,0,0,1-3,1.22,13.4,13.4,0,0,0-1,2.52,11.51,11.51,0,0,1,6.56,6.42c1-.25,1.93-.56,2.88-.89a19,19,0,0,1,8.68-12.07A19.37,19.37,0,0,1,151,101.31a24.91,24.91,0,0,1,5.36,3.31,29.54,29.54,0,0,1-9.57,15.87c0-4.72,0-9.44,0-14.16-2.27,0-4.62-.31-6.81.42-1.79.53-3.59,1.05-5.4,1.51.24,1.8.76,3.55,1.17,5.32,1.43-.25,2.85-.6,4.26-1,0,4.15,0,8.3,0,12.45a29.61,29.61,0,0,1-13.34,3.42,20.47,20.47,0,0,1-2.27-12.43l-2.13.66a12.35,12.35,0,0,1-2.47,11.12,30.37,30.37,0,0,1-19.42-12.71l1.34-2.31-1.58-1.56-1.61.88a27,27,0,0,1-3.52-10.4,5.82,5.82,0,0,1,5.87,1.18,5.59,5.59,0,0,1,1.38,5.46c-.22.8-.91,1.47-.92,2.32.34.45.74.86,1.12,1.28a12.43,12.43,0,0,1,11.59-3.39l1-2.35A3.92,3.92,0,0,1,113,101.69Z"/><path class="cls-1" d="M81.07,199.71c0-1.41,1.6-1.73,2.73-1.74l1.29,1.23c-.06.94,0,2.15-1,2.63A2.05,2.05,0,0,1,81.07,199.71Z"/><path class="cls-1" d="M168.11,199.17c.39-.41.8-.8,1.2-1.2,1.13,0,2.73.34,2.74,1.76a2,2,0,0,1-2.21,2.3c-.83.08-1.28-.71-1.77-1.21Z"/><path class="cls-2" d="M122.12.14C123.18.09,124.24,0,125.3,0c-1.39,2.56-2.83,5.11-4.09,7.75a29.37,29.37,0,0,0,.37,4.87l-2.85.21c-.32-2,.25-4.41-1.28-6C116,4.87,114.52,2.88,113,.94l3.2-.36c1.21,1.47,2.1,3.19,3.45,4.54C120.43,3.44,121.27,1.78,122.12.14Z"/><path class="cls-2" d="M128.33,0c3.09.22,6.18.52,9.28.71,0,.83,0,1.67-.06,2.51-2.19,0-4.36-.51-6.54-.39-.17.73-.25,1.48-.35,2.22,1.94.24,3.89.39,5.84.49-.06.83-.13,1.67-.18,2.5-1.9-.13-3.78-.29-5.67-.45-.12.8-.25,1.6-.37,2.41,2.21.35,4.45.4,6.67.57q-.07,1.28-.18,2.56c-3.12-.32-6.24-.55-9.36-.76C127.66,8.27,128.14,4.16,128.33,0Z"/><path class="cls-2" d="M105.69,2.34A6.41,6.41,0,0,1,111.24,4a6.57,6.57,0,0,1,.09,9.24,6.89,6.89,0,0,1-9.42.09,6.51,6.51,0,0,1-1.43-6.83A6.61,6.61,0,0,1,105.69,2.34Zm-.45,2.82a3.83,3.83,0,0,0-.83,6.51c2.1,2,6,.21,5.89-2.67C110.56,6.4,107.71,4,105.24,5.16Z"/><path class="cls-2" d="M142.9,3a7.07,7.07,0,0,1,8.82,2.65q-1.11.81-2.26,1.57c-.9-1.21-2.21-2.4-3.84-2.19-2.92.21-4.48,4.27-2.46,6.4,1.33,1.59,3.61,1.3,5.3.52.41.71.85,1.42,1.28,2.12-3,2.08-7.86,1.26-9.6-2.1A6.64,6.64,0,0,1,142.9,3Z"/><path class="cls-2" d="M154.68,4.91l9.46,4-1,2.41c-1.16-.48-2.31-1-3.48-1.44-1.2,3-2.56,6-3.79,9-.89-.35-1.76-.73-2.63-1.12,1.35-3,2.56-6,3.88-9-1.16-.47-2.31-1-3.46-1.43Z"/><path class="cls-2" d="M86.08,9.86c2.86-1,5.48-3.37,8.68-2.76,2.78.81,3.71,4.75,1.75,6.84,1.47.92,3,1.8,4.46,2.71-1,.5-2,1-3,1.4-1.35-.84-2.72-1.65-4.06-2.51l-1.76.86c.45,1.21,1,2.39,1.55,3.56-.83.42-1.67.82-2.5,1.23C89.5,17.43,87.67,13.69,86.08,9.86ZM89.71,11c.43,1,.87,2.06,1.31,3.09,1.49-.61,3.18-1.14,4-2.65-.44-.77-.78-1.93-1.89-1.85A16.86,16.86,0,0,0,89.71,11Z"/><path class="cls-2" d="M166.36,12.58c4-1.36,8.89,1.93,8.73,6.27a6.36,6.36,0,0,1-6.95,6.39A6.76,6.76,0,0,1,162,18.38,6.6,6.6,0,0,1,166.36,12.58Zm.76,2.74c-2.33,1.13-3.25,4.71-1,6.38,2.2,2.16,6.06.06,6.1-2.82A3.65,3.65,0,0,0,167.12,15.31Z"/><path class="cls-2" d="M74.85,17c2.11-1.24,3.95-3.09,6.34-3.76,3-.8,5.87,2.66,4.85,5.52-.59,1.87-2.43,2.87-3.93,3.92.69,1,1.36,2,2.08,3-.78.54-1.56,1.07-2.33,1.61C79.44,24,77.25,20.43,74.85,17Zm3.85.52c.63,1,1.29,2,1.93,3,1-.71,2.41-1.24,2.84-2.54.15-.86-.62-1.44-1-2.09C81,15.79,79.85,16.78,78.71,17.55Z"/><path class="cls-2" d="M118,27.8a56.38,56.38,0,0,1,14.11-.21c1.28.16,2.77.09,3.78,1a3.19,3.19,0,0,1-.46,5c-1.09.74-2.44.33-3.64.22a50.79,50.79,0,0,0-13.18.19,3,3,0,0,1-3.47-2.9A3.13,3.13,0,0,1,118,27.8Z"/><path class="cls-2" d="M122.73,34.93c5-.11,10.12-.12,15,1.13,2.26.61,2.79,4,1,5.38a3.65,3.65,0,0,1-3.3.52,49.38,49.38,0,0,0-19.08,0,3.48,3.48,0,0,1-3.16-.62A3.17,3.17,0,0,1,114.39,36,43.6,43.6,0,0,1,122.73,34.93Z"/><path class="cls-2" d="M117.18,43a55.88,55.88,0,0,1,24.42,1.6c1.36.5,3,.82,3.75,2.24a3.08,3.08,0,0,1-1.44,4.31c-1.76.86-3.48-.49-5.18-.86a48.33,48.33,0,0,0-25.11-.11c-1.9.39-3.87,2-5.8.83a3.18,3.18,0,0,1,.09-5.46A38.23,38.23,0,0,1,117.18,43Z"/><path class="cls-2" d="M107.89,55.77a3.1,3.1,0,0,1,4.33-2.32A3.42,3.42,0,0,1,114.15,57c-.09,2.94.33,6-.73,8.8a11.25,11.25,0,0,1-4.94,5.76A31.21,31.21,0,0,0,94.89,94.71a46.42,46.42,0,0,0,.18,7,27,27,0,0,0,3.52,10.4c.63,1,1.24,2,1.85,3a30.37,30.37,0,0,0,19.42,12.71,51.38,51.38,0,0,0,6.87.65A29.61,29.61,0,0,0,140,125.08a46.74,46.74,0,0,0,6.72-4.59,29.54,29.54,0,0,0,9.57-15.87,31.41,31.41,0,0,0-12.59-33,25.77,25.77,0,0,1-4.06-2.92,10.83,10.83,0,0,1-2.83-5c-.57-2.2-.3-4.5-.36-6.74a3.44,3.44,0,0,1,1.85-3.52,3.14,3.14,0,0,1,4.39,2.28c.3,2.09-.1,4.23.21,6.32a5,5,0,0,0,2.64,3.21,37.39,37.39,0,0,1,6.67,58.59,36.82,36.82,0,0,1-21,10.42A37.39,37.39,0,0,1,102.78,67.9c1.71-1.5,4.29-2.41,4.92-4.82C108,60.66,107.66,58.2,107.89,55.77Z"/><path class="cls-2" d="M193.23,85.14c1.62.29,3.26.46,4.88.75-.61,4.34-1.28,8.67-1.87,13,1.62.21,3.22.48,4.84.65.48-3.79,1.16-7.56,1.6-11.36,1.63.12,3.25.38,4.87.64-.46,3.82-1.14,7.61-1.59,11.42,1.65.31,3.32.51,5,.79q.94-6.61,1.92-13.22c1.62.22,3.23.49,4.85.69-.89,6.16-1.81,12.32-2.66,18.49-8.16-.92-16.27-2.31-24.4-3.42C191.42,97.43,192.44,91.3,193.23,85.14Z"/><path class="cls-2" d="M33.82,85.79C42.55,88,51.24,90.32,60,92.55q.39,2.52.74,5c-7.69,4.64-15.26,9.48-23,14a45.36,45.36,0,0,1-.67-5.69c1.6-1.07,3.31-2,5-3-.54-3.38-.89-6.8-1.57-10.15-1.83-.75-3.85-.92-5.73-1.53C34.38,89.44,34.14,87.6,33.82,85.79ZM45.53,94c.36,2.1.66,4.2,1,6.31,2.38-1.47,4.84-2.8,7.16-4.36C50.94,95.3,48.25,94.58,45.53,94Z"/><path class="cls-2" d="M185.87,114.41c1.39-2.28,3.68-4.42,6.5-4.45a8.61,8.61,0,0,1,8.57,5.32,11.67,11.67,0,0,1,.37,4c3.52-.38,7-.81,10.55-1.09-1,1.85-2,3.68-3,5.54-2.9.37-5.82.59-8.73.88-.61-.09-.93.48-1.18.91-.55.95-1,1.93-1.5,2.91,2.33,1.17,4.58,2.47,6.9,3.67-.89,1.61-1.75,3.24-2.6,4.87-7.27-3.89-14.55-7.77-21.78-11.72C182,121.64,183.84,118,185.87,114.41Zm6.5,1.12a4.68,4.68,0,0,0-2.81,2.5c-.85,1.56-1.67,3.14-2.5,4.71,2.06,1.06,4,2.31,6.16,3.19.94-2.11,2.39-4,3.08-6.2S194.59,115.23,192.37,115.54Z"/><path class="cls-2" d="M53.72,116c1.56-4.1,7.37-5.71,10.87-3.06,4,2.95,5.48,8.38,4.78,13.14-1.6-.12-3.2-.28-4.78-.53l-.26-.34c.29-2.78,0-6.14-2.34-8a2,2,0,0,0-3.08,1.69c.22,3.45,1.94,6.74,1.41,10.25C59.7,133.62,54,136,50.2,134c-2.71-1.28-4.29-4-5.36-6.68-1.14-2.84-1-6-.66-9,1.68.32,3.35.69,5,1a11.73,11.73,0,0,0,.5,6.94,5.29,5.29,0,0,0,2.86,3.19,2.1,2.1,0,0,0,2.29-2.3C54.67,123.42,52.61,119.78,53.72,116Z"/><path class="cls-2" d="M163.87,140.62c4.59-4.21,9.25-8.33,13.86-12.51a41.45,41.45,0,0,1,3.31,3.78c-3.35,2.79-6.5,5.82-9.77,8.71,1.12,1.17,2.15,2.42,3.27,3.58,2.8-2.54,5.59-5.1,8.44-7.59,1.43.75,2.22,2.43,3.45,3.5-2.84,2.63-5.78,5.15-8.6,7.79,1.16,1.21,2.25,2.47,3.39,3.7,3.29-3,6.55-6,9.94-8.9l3.26,3.71c-4.72,4.11-9.33,8.36-14,12.55C174.87,152.87,169.44,146.68,163.87,140.62Z"/><path class="cls-2" d="M68.41,134a12.66,12.66,0,0,1,11.66-.48c4.38,2.13,7.78,6.54,7.94,11.52-1.74.28-3.51.4-5.25.73a9.82,9.82,0,0,0-2.85-6.27,6.74,6.74,0,0,0-6-1.63,8.65,8.65,0,0,0-6.52,7.3,7,7,0,0,0,3,6.33,9.38,9.38,0,0,0,6,1.6q.18,2.49.28,5a17,17,0,0,1-5.23-.41c-5.91-1.74-10.46-7.87-9.48-14.12A13.32,13.32,0,0,1,68.41,134Z"/><path class="cls-2" d="M93.15,143.79c5.79,2.21,11.52,4.61,17.31,6.82-.53,1.56-1.16,3.08-1.76,4.61-4.13-1.52-8.13-3.42-12.33-4.74-.51,1.48-1.13,2.93-1.64,4.41,3.54,1.48,7.13,2.84,10.69,4.26q-.91,2.23-1.72,4.5c-3.7-1.16-7.2-2.88-10.87-4.11q-.95,2.3-1.83,4.62,6.17,2.47,12.34,4.9c-.56,1.57-1.18,3.11-1.85,4.63-5.76-2.42-11.62-4.61-17.39-7C87.07,159,90.18,151.44,93.15,143.79Z"/><path class="cls-2" d="M149.21,147.58a13.41,13.41,0,0,1,10.85.29,12.4,12.4,0,0,1,6,14.84,13,13,0,0,1-7.44,7.69c-3.13,1.26-6.31,2.42-9.43,3.74-3.11-7.62-6-15.35-9.08-23C143.11,149.93,146.16,148.76,149.21,147.58Zm-2.15,6.19c1.74,4.37,3.43,8.77,5.16,13.15.14.67.91.19,1.32.1,2.22-.89,4.72-1.6,6.18-3.65,3.12-4,.39-10.58-4.45-11.58C152.36,151.12,149.71,152.88,147.06,153.77Z"/><path class="cls-2" d="M114.13,151.66q2.57,0,5.14,0,5.46,7.49,11,14.94c.59-4.91.09-9.88.48-14.81,1.78.08,3.57.15,5.37.13-.25,3.49-.12,7-.18,10.49,0,4.72-.34,9.42-.25,14.14-1.57,0-3.15,0-4.71-.08-3.57-4.91-7.2-9.78-10.78-14.68-.29-.37-.57-.74-.87-1.1-.17,5.14,0,10.28-.36,15.4l-5.12,0c.35-4.86.25-9.74.15-14.61C113.82,158.18,114.27,154.93,114.13,151.66Z"/><path class="cls-2" d="M0,194.77H2.07c0,.57-.09,1.15-.14,1.74H.12C.08,195.93,0,195.35,0,194.77Z"/><path class="cls-2" d="M61.31,196.66l1.48-2.38c.58.21,1.16.42,1.74.64-.58.6-1.19,1.18-1.79,1.76Z"/><path class="cls-2" d="M148.32,196.47a19,19,0,0,1,1.47-2.29c.64,0,1.17.45,1.75.68-.62.55-1.26,1.09-1.9,1.62Z"/><path class="cls-2" d="M238.88,196.68l1.5-2.42,1.69.69q-.87.86-1.76,1.71Z"/><path class="cls-2" d="M54.44,194.77h2c0,.55,0,1.1,0,1.65l-1.95,0Z"/><path class="cls-2" d="M92.14,195.88c.77-1.37,2.33-1.37,3.72-1.19,0,.39,0,1.16,0,1.55l-1.68,0-.43,1.31c.72.07,1.44.12,2.16.18,0,.34-.07,1-.09,1.35l-1.94,0c0,2,0,3.92,0,5.88H92.16q0-3,0-5.9l-.94,0-.11-1.39,1.07,0Z"/><path class="cls-2" d="M141.45,194.78l1.93,0c0,.58,0,1.16-.06,1.75h-1.63C141.61,195.93,141.54,195.35,141.45,194.78Z"/><path class="cls-2" d="M203.15,194.77H205c-.06,3.4,0,6.81,0,10.21h-1.81C203.18,201.57,203.21,198.17,203.15,194.77Z"/><path class="cls-2" d="M.14,197.52H1.91c0,2.49,0,5,0,7.47H.15C.16,202.49.17,200,.14,197.52Z"/><path class="cls-2" d="M5.73,198.37c1.34-1.33,4.21-1.47,4.85.63.26,2,0,4,.11,6L9,204.95c-.08-1.74.24-3.54-.21-5.24-.43-.9-1.52-.57-2.31-.58-1.12,1.76-.55,3.91-.67,5.87L4,205q0-3.72,0-7.43l1.74,0Z"/><path class="cls-2" d="M14.44,198.42c1.27-1.43,4.18-1.53,4.84.53.37,2,.07,4,.17,6H17.72a31.08,31.08,0,0,0-.13-4.87c-.22-1.51-2.7-1.39-3,0-.18,1.6,0,3.22-.07,4.84l-1.87,0q0-3.72,0-7.43l1.89,0C14.52,197.73,14.47,198.19,14.44,198.42Z"/><path class="cls-2" d="M23.62,197.58a4.13,4.13,0,0,1,5,1.85,4,4,0,1,1-7.53,2.41A3.89,3.89,0,0,1,23.62,197.58Zm.37,1.6a2.42,2.42,0,0,0,.29,4.28,2.24,2.24,0,0,0,2.94-2.52A2.27,2.27,0,0,0,24,199.18Z"/><path class="cls-2" d="M38.29,198c1.79-.62,4.23-1.16,5.65.44,1.09,2,.35,4.4.55,6.58-.69-.08-1.49.08-2-.54a3.4,3.4,0,0,1-3.38.44c-1.8-.52-1.89-3.55-.15-4.2,1.25-.58,2.65-.25,4-.21-.46-2-2.66-1.55-4.11-1.13Zm1,4.75c.48.52.94,1.27,1.78,1.06,1.2.1,1.86-1.06,1.85-2.12q-1.34-.09-2.67-.09Z"/><path class="cls-2" d="M46.09,201a3.76,3.76,0,0,1,4-3.57,5,5,0,0,1,3.08,1.17l-1.26,1.26c-.87-.81-2.35-1.27-3.27-.3a2.4,2.4,0,0,0,1.07,4c.91.23,1.65-.43,2.39-.85l1.1,1.14a4.53,4.53,0,0,1-3.9,1.31A3.89,3.89,0,0,1,46.09,201Z"/><path class="cls-2" d="M54.62,197.52h1.81c0,2.49,0,5,0,7.47H54.63C54.63,202.48,54.65,200,54.62,197.52Z"/><path class="cls-2" d="M60.89,197.52a4.1,4.1,0,0,1,4.77,1.9A4,4,0,0,1,63.48,205a4.05,4.05,0,0,1-5.21-2.4A3.94,3.94,0,0,1,60.89,197.52Zm.37,1.6a2.36,2.36,0,0,0-.58,3.9,2.15,2.15,0,0,0,3.58-1.28A2.27,2.27,0,0,0,61.26,199.12Z"/><path class="cls-2" d="M69.5,198.32a3.53,3.53,0,0,1,2.72-.92,2.35,2.35,0,0,1,2.19,2.29c.14,1.76,0,3.52.07,5.28h-1.8a36.16,36.16,0,0,0-.11-4.9c-.24-1.18-1.53-1.06-2.44-.91l-.57.94c0,1.62,0,3.24,0,4.87H67.77c0-2.49,0-5,0-7.45l1.81,0C69.55,197.71,69.52,198.12,69.5,198.32Z"/><path class="cls-2" d="M99,197.59a4.4,4.4,0,0,1,4.37.92,4,4,0,0,1-.17,5.6,4.09,4.09,0,0,1-6.12-.62A4,4,0,0,1,99,197.59Zm.43,1.58a2.37,2.37,0,0,0-.31,3.94c1.3,1.24,3.58,0,3.52-1.72A2.27,2.27,0,0,0,99.47,199.17Z"/><path class="cls-2" d="M108.08,198.29a11.61,11.61,0,0,1,2.35-1.1c0,.63.05,1.27.08,1.91-.83.32-1.89.47-2.28,1.39-.63,1.41-.39,3-.42,4.48h-1.7c0-2.49,0-5,0-7.47h1.71c0,.38,0,1.14,0,1.52Z"/><path class="cls-2" d="M114,198.09a3,3,0,0,1,4.18.33c1.29-1.39,4.21-1.56,4.9.51a45.23,45.23,0,0,1,.15,6.11c-.58,0-1.16-.07-1.74-.13-.31-1.67.36-3.41-.16-5a1.48,1.48,0,0,0-2.78.3,33.56,33.56,0,0,0-.11,4.81l-1.69,0c-.07-1.7.21-3.44-.19-5.11a1.48,1.48,0,0,0-2.78.3c-.12,1.6,0,3.2,0,4.8h-1.87c0-2.51,0-5,0-7.52C112.61,197.53,113.52,197.34,114,198.09Z"/><path class="cls-2" d="M125.31,198a7.31,7.31,0,0,1,4-.47,2.42,2.42,0,0,1,2.13,2.19c.07,1.79,0,3.59,0,5.39-.69-.12-1.38-.25-2.06-.41a3.62,3.62,0,0,1-4-.23,2.65,2.65,0,0,1,0-3.3c1.28-1.12,3.1-.69,4.64-.68-.5-1.93-2.67-1.52-4.11-1.08Zm1,4.92.9.94c1.23.19,3.06-.6,2.58-2.1C128.52,201.45,126.76,201.35,126.32,202.91Z"/><path class="cls-2" d="M134.33,198.3a4.49,4.49,0,0,1,5.79.3c-.36.37-.7.77-1.09,1.11-.91-.28-1.81-1-2.8-.62a2.39,2.39,0,0,0-.55,4c1,1,2.44.31,3.42-.35l1,1.14a4.31,4.31,0,0,1-4.68,1A4,4,0,0,1,134.33,198.3Z"/><path class="cls-2" d="M147.85,197.53c2.92-1.05,6.26,2,5,5-.77,2.91-5,3.66-6.86,1.35A4,4,0,0,1,147.85,197.53Zm.37,1.58c-1.74.62-1.76,3.56,0,4.26a2.22,2.22,0,0,0,3.14-2A2.31,2.31,0,0,0,148.22,199.11Z"/><path class="cls-2" d="M156.71,198.32c1.23-1.6,4.32-1.14,4.65,1,.16,1.89,0,3.79.07,5.69l-1.77,0c0-1.58.09-3.17,0-4.75s-2.67-1.58-3-.12a43.2,43.2,0,0,0-.09,4.89l-1.77,0q0-3.75,0-7.49C155.51,197.53,156.55,197.27,156.71,198.32Z"/><path class="cls-2" d="M178.93,199a3.65,3.65,0,0,1,5.91-.3,6,6,0,0,1,.82,3.2c-1.89,0-3.77,0-5.65.06.43.69.87,1.56,1.77,1.69s1.76-.43,2.56-.83l1,1a4.52,4.52,0,0,1-4.49,1.15C178.44,204.3,177.64,201.06,178.93,199Zm1.07,1.63c1.3,0,2.6,0,3.91,0a2.31,2.31,0,0,0-2.27-1.87A3.63,3.63,0,0,0,180,200.66Z"/><path class="cls-2" d="M195,198c1.83-.71,4.53-1.16,5.79.75.77,2,.2,4.17.38,6.24a5.66,5.66,0,0,1-2.13-.34,3.81,3.81,0,0,1-3.26.28,2.36,2.36,0,0,1-.52-4c1.26-.87,2.86-.5,4.28-.44-.23-.48-.45-.94-.68-1.4a9.78,9.78,0,0,0-3.36.25Zm1.6,3.88a1.09,1.09,0,0,0,.74,1.94c1.23.22,2-.81,2.42-1.81C198.74,201.67,197.5,201.27,196.56,201.89Z"/><path class="cls-2" d="M212,197.5h1.66c0,2.46-.1,4.93.1,7.38l-1.73.13c0-.23,0-.68,0-.91a4.06,4.06,0,0,1-2.41,1.1,2.49,2.49,0,0,1-2.48-2.17c-.08-1.85,0-3.71,0-5.56l1.66,0c0,1.77-.29,3.62.3,5.34a1.6,1.6,0,0,0,2.81-.47A27.42,27.42,0,0,0,212,197.5Z"/><path class="cls-2" d="M215.94,198c1.83-.69,4.47-1.15,5.77.71.84,2,.31,4.23.45,6.32a6.8,6.8,0,0,1-2.23-.38,3.74,3.74,0,0,1-3.23.29,2.34,2.34,0,0,1-.53-4c1.27-.93,2.93-.49,4.38-.5a9.77,9.77,0,0,0-.84-1.29,8.25,8.25,0,0,0-3.35.09Zm2.33,5.81a2,2,0,0,0,2.28-2.08,10.16,10.16,0,0,0-2.78,0A1.11,1.11,0,0,0,218.27,203.81Z"/><path class="cls-2" d="M223.68,201.82a3.81,3.81,0,0,1,3.55-4.42,4.51,4.51,0,0,1,3.4,1.16c-.32.41-.65.82-1,1.23-.94-.43-2-1.22-3.05-.6a2.42,2.42,0,0,0,0,4.14c1,.67,2.16-.07,3.05-.61l1,1.07a4.91,4.91,0,0,1-2.16,1.3A3.88,3.88,0,0,1,223.68,201.82Z"/><path class="cls-2" d="M232.16,197.49l1.83,0q0,3.72,0,7.43l-1.83,0C232.16,202.49,232.15,200,232.16,197.49Z"/><path class="cls-2" d="M238.51,197.52c2.45-.8,5.44,1.19,5.14,3.87.11,3-3.69,4.87-6.12,3.24C234.69,203.11,235.28,198.17,238.51,197.52Zm.38,1.57a2.34,2.34,0,0,0-1,3.54,2.16,2.16,0,0,0,3.79-.38A2.31,2.31,0,0,0,238.89,199.09Z"/><path class="cls-2" d="M247.08,198.39c1.38-1.65,4.65-1.28,4.91,1.1.14,1.82,0,3.65.06,5.47H250.3a25.56,25.56,0,0,0-.2-5.11c-.37-1.09-1.63-.76-2.49-.71-.85,1.82-.39,3.86-.48,5.79l-1.83,0q0-3.75,0-7.5l1.87,0C247.15,197.75,247.1,198.18,247.08,198.39Z"/><path class="cls-2" d="M29.47,197.52h2c.59,1.74,1.22,3.47,1.9,5.17.72-1.69,1.33-3.41,1.94-5.14.65,0,1.3,0,2,0-1,2.36-1.92,4.75-2.89,7.11-.28.78-1.26.37-1.86.4C31.55,202.5,30.53,200,29.47,197.52Z"/><path class="cls-2" d="M141.59,197.52l1.77,0c0,2.5,0,5,0,7.5l-1.76,0C141.61,202.48,141.62,200,141.59,197.52Z"/><path class="cls-2" d="M186.12,197.51h2c.64,1.76,1.26,3.54,1.93,5.29.7-1.75,1.32-3.52,1.95-5.29l1.93,0c-1,2.48-2,5-3,7.46l-1.67.09Q187.69,201.29,186.12,197.51Z"/><path class="cls-2" d="M118.94,176.09c.36-5.13.19-10.27.36-15.4.3.36.58.73.87,1.1l-.71-.18c.2,4.9-.25,9.79-.21,14.69q-2.82.1-5.66,0c.2-5,0-9.92.38-14.87.1,4.87.21,9.75-.15,14.61Z"/><path class="cls-2" d="M232.16,194.77l1.91-.08c0,.62.09,1.24.14,1.87l-2.06,0,1.69-.24c0-.37.09-1.1.12-1.46Z"/><path class="cls-2" d="M232.16,194.77l1.8.05c0,.37-.09,1.1-.12,1.46l-1.69.24C232.16,196.09,232.16,195.21,232.16,194.77Z"/></g></g></svg>